<mxfile host="Electron" modified="2024-05-20T16:45:59.165Z" agent="Mozilla/5.0 (Windows NT 10.0; Win64; x64) AppleWebKit/537.36 (KHTML, like Gecko) draw.io/24.4.0 Chrome/120.0.6099.109 Electron/28.1.0 Safari/537.36" etag="Y77XPX0-CZhU79dlScx6" version="24.4.0" type="device">
  <diagram name="Page-1" id="Gqdze-NQa29YAM_Jx_t0">
    <mxGraphModel dx="2960" dy="2143" grid="1" gridSize="10" guides="1" tooltips="1" connect="1" arrows="1" fold="1" page="1" pageScale="1" pageWidth="3300" pageHeight="4681" math="0" shadow="0">
      <root>
        <mxCell id="0" />
        <mxCell id="1" parent="0" />
        <mxCell id="XVNHufyyQOhivySqoOcP-11" style="edgeStyle=orthogonalEdgeStyle;rounded=0;orthogonalLoop=1;jettySize=auto;html=1;exitX=0.5;exitY=1;exitDx=0;exitDy=0;entryX=0.5;entryY=0;entryDx=0;entryDy=0;" edge="1" parent="1" source="XVNHufyyQOhivySqoOcP-1" target="XVNHufyyQOhivySqoOcP-2">
          <mxGeometry relative="1" as="geometry" />
        </mxCell>
        <mxCell id="XVNHufyyQOhivySqoOcP-1" value="User input of CSV files containing Name and Contact Number" style="ellipse;whiteSpace=wrap;html=1;" vertex="1" parent="1">
          <mxGeometry x="562.5" y="210" width="145" height="90" as="geometry" />
        </mxCell>
        <mxCell id="XVNHufyyQOhivySqoOcP-8" style="edgeStyle=orthogonalEdgeStyle;rounded=0;orthogonalLoop=1;jettySize=auto;html=1;exitX=0;exitY=1;exitDx=0;exitDy=0;entryX=0.5;entryY=0;entryDx=0;entryDy=0;" edge="1" parent="1" source="XVNHufyyQOhivySqoOcP-2" target="XVNHufyyQOhivySqoOcP-3">
          <mxGeometry relative="1" as="geometry" />
        </mxCell>
        <mxCell id="XVNHufyyQOhivySqoOcP-9" style="edgeStyle=orthogonalEdgeStyle;rounded=0;orthogonalLoop=1;jettySize=auto;html=1;exitX=0.5;exitY=1;exitDx=0;exitDy=0;entryX=0.5;entryY=0;entryDx=0;entryDy=0;" edge="1" parent="1" source="XVNHufyyQOhivySqoOcP-2" target="XVNHufyyQOhivySqoOcP-4">
          <mxGeometry relative="1" as="geometry" />
        </mxCell>
        <mxCell id="XVNHufyyQOhivySqoOcP-10" style="edgeStyle=orthogonalEdgeStyle;rounded=0;orthogonalLoop=1;jettySize=auto;html=1;exitX=1;exitY=1;exitDx=0;exitDy=0;entryX=0.5;entryY=0;entryDx=0;entryDy=0;" edge="1" parent="1" source="XVNHufyyQOhivySqoOcP-2" target="XVNHufyyQOhivySqoOcP-5">
          <mxGeometry relative="1" as="geometry" />
        </mxCell>
        <mxCell id="XVNHufyyQOhivySqoOcP-2" value="Initial message" style="rounded=1;whiteSpace=wrap;html=1;" vertex="1" parent="1">
          <mxGeometry x="575" y="350" width="120" height="60" as="geometry" />
        </mxCell>
        <mxCell id="XVNHufyyQOhivySqoOcP-13" style="edgeStyle=orthogonalEdgeStyle;rounded=0;orthogonalLoop=1;jettySize=auto;html=1;exitX=0.5;exitY=1;exitDx=0;exitDy=0;entryX=0.5;entryY=0;entryDx=0;entryDy=0;" edge="1" parent="1" source="XVNHufyyQOhivySqoOcP-3" target="XVNHufyyQOhivySqoOcP-16">
          <mxGeometry relative="1" as="geometry">
            <mxPoint x="330" y="550" as="targetPoint" />
            <Array as="points" />
          </mxGeometry>
        </mxCell>
        <mxCell id="XVNHufyyQOhivySqoOcP-3" value="Yes" style="rhombus;whiteSpace=wrap;html=1;" vertex="1" parent="1">
          <mxGeometry x="290" y="450" width="80" height="80" as="geometry" />
        </mxCell>
        <mxCell id="XVNHufyyQOhivySqoOcP-147" value="" style="edgeStyle=orthogonalEdgeStyle;rounded=0;orthogonalLoop=1;jettySize=auto;html=1;" edge="1" parent="1" source="XVNHufyyQOhivySqoOcP-4" target="XVNHufyyQOhivySqoOcP-146">
          <mxGeometry relative="1" as="geometry" />
        </mxCell>
        <mxCell id="XVNHufyyQOhivySqoOcP-4" value="No" style="rhombus;whiteSpace=wrap;html=1;" vertex="1" parent="1">
          <mxGeometry x="595" y="450" width="80" height="80" as="geometry" />
        </mxCell>
        <mxCell id="XVNHufyyQOhivySqoOcP-43" style="edgeStyle=orthogonalEdgeStyle;rounded=0;orthogonalLoop=1;jettySize=auto;html=1;exitX=0.5;exitY=1;exitDx=0;exitDy=0;entryX=0.5;entryY=0;entryDx=0;entryDy=0;" edge="1" parent="1" source="XVNHufyyQOhivySqoOcP-5" target="XVNHufyyQOhivySqoOcP-42">
          <mxGeometry relative="1" as="geometry" />
        </mxCell>
        <mxCell id="XVNHufyyQOhivySqoOcP-5" value="Didn&#39;t reply" style="rhombus;whiteSpace=wrap;html=1;" vertex="1" parent="1">
          <mxGeometry x="930" y="450" width="80" height="80" as="geometry" />
        </mxCell>
        <mxCell id="XVNHufyyQOhivySqoOcP-7" style="edgeStyle=orthogonalEdgeStyle;rounded=0;orthogonalLoop=1;jettySize=auto;html=1;exitX=0.16;exitY=0.55;exitDx=0;exitDy=0;exitPerimeter=0;entryX=1;entryY=0.25;entryDx=0;entryDy=0;" edge="1" parent="1" source="XVNHufyyQOhivySqoOcP-6" target="XVNHufyyQOhivySqoOcP-2">
          <mxGeometry relative="1" as="geometry" />
        </mxCell>
        <mxCell id="XVNHufyyQOhivySqoOcP-6" value="Something along the lines of&amp;nbsp;&lt;br&gt;&quot;Hey is this John?&quot;&lt;br&gt;&quot;Are you still in {niche}?" style="ellipse;shape=cloud;whiteSpace=wrap;html=1;" vertex="1" parent="1">
          <mxGeometry x="760" y="310" width="200" height="100" as="geometry" />
        </mxCell>
        <mxCell id="XVNHufyyQOhivySqoOcP-19" style="edgeStyle=orthogonalEdgeStyle;rounded=0;orthogonalLoop=1;jettySize=auto;html=1;exitX=0;exitY=1;exitDx=0;exitDy=0;entryX=0.5;entryY=0;entryDx=0;entryDy=0;" edge="1" parent="1" source="XVNHufyyQOhivySqoOcP-16" target="XVNHufyyQOhivySqoOcP-17">
          <mxGeometry relative="1" as="geometry" />
        </mxCell>
        <mxCell id="XVNHufyyQOhivySqoOcP-20" style="edgeStyle=orthogonalEdgeStyle;rounded=0;orthogonalLoop=1;jettySize=auto;html=1;exitX=1;exitY=1;exitDx=0;exitDy=0;" edge="1" parent="1" source="XVNHufyyQOhivySqoOcP-16" target="XVNHufyyQOhivySqoOcP-18">
          <mxGeometry relative="1" as="geometry" />
        </mxCell>
        <mxCell id="XVNHufyyQOhivySqoOcP-16" value="&#xa;&lt;span style=&quot;color: rgb(240, 240, 240); font-family: Helvetica; font-size: 12px; font-style: normal; font-variant-ligatures: normal; font-variant-caps: normal; font-weight: 400; letter-spacing: normal; orphans: 2; text-align: center; text-indent: 0px; text-transform: none; widows: 2; word-spacing: 0px; -webkit-text-stroke-width: 0px; white-space: normal; background-color: rgb(27, 29, 30); text-decoration-thickness: initial; text-decoration-style: initial; text-decoration-color: initial; display: inline !important; float: none;&quot;&gt;Send Message&lt;/span&gt;&lt;br style=&quot;forced-color-adjust: none; border-color: rgb(0, 0, 0); color: rgb(240, 240, 240); font-family: Helvetica; font-size: 12px; font-style: normal; font-variant-ligatures: normal; font-variant-caps: normal; font-weight: 400; letter-spacing: normal; orphans: 2; text-align: center; text-indent: 0px; text-transform: none; widows: 2; word-spacing: 0px; -webkit-text-stroke-width: 0px; white-space: normal; background-color: rgb(27, 29, 30); text-decoration-thickness: initial; text-decoration-style: initial; text-decoration-color: initial;&quot;&gt;&lt;span style=&quot;color: rgb(240, 240, 240); font-family: Helvetica; font-size: 12px; font-style: normal; font-variant-ligatures: normal; font-variant-caps: normal; font-weight: 400; letter-spacing: normal; orphans: 2; text-align: center; text-indent: 0px; text-transform: none; widows: 2; word-spacing: 0px; -webkit-text-stroke-width: 0px; white-space: normal; background-color: rgb(27, 29, 30); text-decoration-thickness: initial; text-decoration-style: initial; text-decoration-color: initial; display: inline !important; float: none;&quot;&gt;&quot;Would you be opposed to a quick call regarding how we could help you increase your business?&quot;&lt;/span&gt;&#xa;&#xa;" style="ellipse;whiteSpace=wrap;html=1;" vertex="1" parent="1">
          <mxGeometry x="240" y="560" width="180" height="120" as="geometry" />
        </mxCell>
        <mxCell id="XVNHufyyQOhivySqoOcP-139" style="edgeStyle=orthogonalEdgeStyle;rounded=0;orthogonalLoop=1;jettySize=auto;html=1;exitX=0;exitY=0.5;exitDx=0;exitDy=0;" edge="1" parent="1" source="XVNHufyyQOhivySqoOcP-17">
          <mxGeometry relative="1" as="geometry">
            <mxPoint x="190" y="830" as="targetPoint" />
          </mxGeometry>
        </mxCell>
        <mxCell id="XVNHufyyQOhivySqoOcP-141" style="edgeStyle=orthogonalEdgeStyle;rounded=0;orthogonalLoop=1;jettySize=auto;html=1;exitX=1;exitY=0.5;exitDx=0;exitDy=0;entryX=0.5;entryY=0;entryDx=0;entryDy=0;" edge="1" parent="1" source="XVNHufyyQOhivySqoOcP-17" target="XVNHufyyQOhivySqoOcP-138">
          <mxGeometry relative="1" as="geometry" />
        </mxCell>
        <mxCell id="XVNHufyyQOhivySqoOcP-17" value="Reply" style="rhombus;whiteSpace=wrap;html=1;" vertex="1" parent="1">
          <mxGeometry x="210" y="720" width="80" height="80" as="geometry" />
        </mxCell>
        <mxCell id="XVNHufyyQOhivySqoOcP-143" style="edgeStyle=orthogonalEdgeStyle;rounded=0;orthogonalLoop=1;jettySize=auto;html=1;exitX=0.5;exitY=1;exitDx=0;exitDy=0;entryX=0.5;entryY=0;entryDx=0;entryDy=0;" edge="1" parent="1" source="XVNHufyyQOhivySqoOcP-18" target="XVNHufyyQOhivySqoOcP-62">
          <mxGeometry relative="1" as="geometry" />
        </mxCell>
        <mxCell id="XVNHufyyQOhivySqoOcP-18" value="Didn&#39;t Reply" style="rhombus;whiteSpace=wrap;html=1;" vertex="1" parent="1">
          <mxGeometry x="390" y="720" width="80" height="80" as="geometry" />
        </mxCell>
        <mxCell id="XVNHufyyQOhivySqoOcP-41" value="&lt;font style=&quot;font-size: 25px;&quot;&gt;&lt;b&gt;Activation Campaign&lt;/b&gt;&lt;/font&gt;" style="text;html=1;align=center;verticalAlign=middle;whiteSpace=wrap;rounded=0;" vertex="1" parent="1">
          <mxGeometry x="960" y="170" width="150" height="60" as="geometry" />
        </mxCell>
        <mxCell id="XVNHufyyQOhivySqoOcP-42" value="Add to reactivation2.csv" style="rounded=1;whiteSpace=wrap;html=1;" vertex="1" parent="1">
          <mxGeometry x="910" y="570" width="120" height="60" as="geometry" />
        </mxCell>
        <mxCell id="XVNHufyyQOhivySqoOcP-66" value="" style="endArrow=none;dashed=1;html=1;rounded=0;" edge="1" parent="1">
          <mxGeometry width="50" height="50" relative="1" as="geometry">
            <mxPoint x="1160" y="1200" as="sourcePoint" />
            <mxPoint x="1160" y="160" as="targetPoint" />
          </mxGeometry>
        </mxCell>
        <mxCell id="XVNHufyyQOhivySqoOcP-67" value="" style="endArrow=none;dashed=1;html=1;rounded=0;" edge="1" parent="1">
          <mxGeometry width="50" height="50" relative="1" as="geometry">
            <mxPoint x="2160" y="1200" as="sourcePoint" />
            <mxPoint x="2160" y="160" as="targetPoint" />
          </mxGeometry>
        </mxCell>
        <mxCell id="XVNHufyyQOhivySqoOcP-68" value="" style="endArrow=none;dashed=1;html=1;rounded=0;" edge="1" parent="1">
          <mxGeometry width="50" height="50" relative="1" as="geometry">
            <mxPoint x="1160" y="160" as="sourcePoint" />
            <mxPoint x="2160" y="160" as="targetPoint" />
          </mxGeometry>
        </mxCell>
        <mxCell id="XVNHufyyQOhivySqoOcP-69" value="" style="endArrow=none;dashed=1;html=1;rounded=0;" edge="1" parent="1">
          <mxGeometry width="50" height="50" relative="1" as="geometry">
            <mxPoint x="1160" y="1202" as="sourcePoint" />
            <mxPoint x="2160" y="1202.4615009014424" as="targetPoint" />
          </mxGeometry>
        </mxCell>
        <mxCell id="XVNHufyyQOhivySqoOcP-70" value="&lt;font style=&quot;font-size: 25px;&quot;&gt;Re-Activation 1&lt;/font&gt;" style="text;html=1;align=center;verticalAlign=middle;whiteSpace=wrap;rounded=0;" vertex="1" parent="1">
          <mxGeometry x="1950" y="180" width="180" height="60" as="geometry" />
        </mxCell>
        <mxCell id="XVNHufyyQOhivySqoOcP-71" value="Lead added to reactivation1.csv" style="ellipse;whiteSpace=wrap;html=1;" vertex="1" parent="1">
          <mxGeometry x="1600" y="220" width="120" height="80" as="geometry" />
        </mxCell>
        <mxCell id="XVNHufyyQOhivySqoOcP-77" style="edgeStyle=orthogonalEdgeStyle;rounded=0;orthogonalLoop=1;jettySize=auto;html=1;exitX=0.5;exitY=1;exitDx=0;exitDy=0;entryX=0.5;entryY=0;entryDx=0;entryDy=0;" edge="1" parent="1" source="XVNHufyyQOhivySqoOcP-72" target="XVNHufyyQOhivySqoOcP-74">
          <mxGeometry relative="1" as="geometry" />
        </mxCell>
        <mxCell id="XVNHufyyQOhivySqoOcP-72" value="Wait 7 days" style="whiteSpace=wrap;html=1;" vertex="1" parent="1">
          <mxGeometry x="1600" y="350" width="120" height="60" as="geometry" />
        </mxCell>
        <mxCell id="XVNHufyyQOhivySqoOcP-73" value="" style="edgeStyle=orthogonalEdgeStyle;rounded=0;orthogonalLoop=1;jettySize=auto;html=1;" edge="1" parent="1" source="XVNHufyyQOhivySqoOcP-71" target="XVNHufyyQOhivySqoOcP-72">
          <mxGeometry relative="1" as="geometry" />
        </mxCell>
        <mxCell id="XVNHufyyQOhivySqoOcP-98" style="edgeStyle=orthogonalEdgeStyle;rounded=0;orthogonalLoop=1;jettySize=auto;html=1;exitX=0;exitY=0.5;exitDx=0;exitDy=0;entryX=0.5;entryY=0;entryDx=0;entryDy=0;" edge="1" parent="1" source="XVNHufyyQOhivySqoOcP-74" target="XVNHufyyQOhivySqoOcP-90">
          <mxGeometry relative="1" as="geometry" />
        </mxCell>
        <mxCell id="XVNHufyyQOhivySqoOcP-99" style="edgeStyle=orthogonalEdgeStyle;rounded=0;orthogonalLoop=1;jettySize=auto;html=1;exitX=1;exitY=0.5;exitDx=0;exitDy=0;entryX=0.5;entryY=0;entryDx=0;entryDy=0;" edge="1" parent="1" source="XVNHufyyQOhivySqoOcP-74" target="XVNHufyyQOhivySqoOcP-91">
          <mxGeometry relative="1" as="geometry" />
        </mxCell>
        <mxCell id="XVNHufyyQOhivySqoOcP-74" value="Send Message&lt;br&gt;&quot;Hey did you get some time to think over my last message?&quot;" style="ellipse;whiteSpace=wrap;html=1;" vertex="1" parent="1">
          <mxGeometry x="1595" y="450" width="130" height="90" as="geometry" />
        </mxCell>
        <mxCell id="XVNHufyyQOhivySqoOcP-76" value="Add lead to removed.csv" style="rounded=0;whiteSpace=wrap;html=1;movable=1;resizable=1;rotatable=1;deletable=1;editable=1;locked=0;connectable=1;" vertex="1" parent="1">
          <mxGeometry x="1540" y="810" width="120" height="60" as="geometry" />
        </mxCell>
        <mxCell id="XVNHufyyQOhivySqoOcP-78" value="" style="endArrow=none;dashed=1;html=1;rounded=0;" edge="1" parent="1">
          <mxGeometry width="50" height="50" relative="1" as="geometry">
            <mxPoint x="2200" y="1200" as="sourcePoint" />
            <mxPoint x="2200" y="160" as="targetPoint" />
          </mxGeometry>
        </mxCell>
        <mxCell id="XVNHufyyQOhivySqoOcP-79" value="" style="endArrow=none;dashed=1;html=1;rounded=0;" edge="1" parent="1">
          <mxGeometry width="50" height="50" relative="1" as="geometry">
            <mxPoint x="3200" y="1200" as="sourcePoint" />
            <mxPoint x="3200" y="160" as="targetPoint" />
          </mxGeometry>
        </mxCell>
        <mxCell id="XVNHufyyQOhivySqoOcP-80" value="" style="endArrow=none;dashed=1;html=1;rounded=0;" edge="1" parent="1">
          <mxGeometry width="50" height="50" relative="1" as="geometry">
            <mxPoint x="2200" y="160" as="sourcePoint" />
            <mxPoint x="3200" y="160" as="targetPoint" />
          </mxGeometry>
        </mxCell>
        <mxCell id="XVNHufyyQOhivySqoOcP-81" value="" style="endArrow=none;dashed=1;html=1;rounded=0;" edge="1" parent="1">
          <mxGeometry width="50" height="50" relative="1" as="geometry">
            <mxPoint x="2200" y="1202" as="sourcePoint" />
            <mxPoint x="3200" y="1202.4615009014424" as="targetPoint" />
          </mxGeometry>
        </mxCell>
        <mxCell id="XVNHufyyQOhivySqoOcP-82" value="&lt;font style=&quot;font-size: 25px;&quot;&gt;Re - Activation 2&lt;/font&gt;" style="text;html=1;align=center;verticalAlign=middle;whiteSpace=wrap;rounded=0;" vertex="1" parent="1">
          <mxGeometry x="2960" y="180" width="210" height="60" as="geometry" />
        </mxCell>
        <mxCell id="XVNHufyyQOhivySqoOcP-83" value="Lead added to reactivation2.csv" style="ellipse;whiteSpace=wrap;html=1;" vertex="1" parent="1">
          <mxGeometry x="2640" y="220" width="120" height="80" as="geometry" />
        </mxCell>
        <mxCell id="XVNHufyyQOhivySqoOcP-84" style="edgeStyle=orthogonalEdgeStyle;rounded=0;orthogonalLoop=1;jettySize=auto;html=1;exitX=0.5;exitY=1;exitDx=0;exitDy=0;entryX=0.5;entryY=0;entryDx=0;entryDy=0;" edge="1" parent="1" source="XVNHufyyQOhivySqoOcP-85" target="XVNHufyyQOhivySqoOcP-87">
          <mxGeometry relative="1" as="geometry" />
        </mxCell>
        <mxCell id="XVNHufyyQOhivySqoOcP-85" value="Wait 14 days" style="whiteSpace=wrap;html=1;" vertex="1" parent="1">
          <mxGeometry x="2640" y="350" width="120" height="60" as="geometry" />
        </mxCell>
        <mxCell id="XVNHufyyQOhivySqoOcP-86" value="" style="edgeStyle=orthogonalEdgeStyle;rounded=0;orthogonalLoop=1;jettySize=auto;html=1;" edge="1" parent="1" source="XVNHufyyQOhivySqoOcP-83" target="XVNHufyyQOhivySqoOcP-85">
          <mxGeometry relative="1" as="geometry" />
        </mxCell>
        <mxCell id="XVNHufyyQOhivySqoOcP-114" style="edgeStyle=orthogonalEdgeStyle;rounded=0;orthogonalLoop=1;jettySize=auto;html=1;exitX=0;exitY=0.5;exitDx=0;exitDy=0;entryX=0.5;entryY=0;entryDx=0;entryDy=0;" edge="1" parent="1" source="XVNHufyyQOhivySqoOcP-87" target="XVNHufyyQOhivySqoOcP-112">
          <mxGeometry relative="1" as="geometry" />
        </mxCell>
        <mxCell id="XVNHufyyQOhivySqoOcP-115" style="edgeStyle=orthogonalEdgeStyle;rounded=0;orthogonalLoop=1;jettySize=auto;html=1;exitX=1;exitY=0.5;exitDx=0;exitDy=0;" edge="1" parent="1" source="XVNHufyyQOhivySqoOcP-87" target="XVNHufyyQOhivySqoOcP-113">
          <mxGeometry relative="1" as="geometry" />
        </mxCell>
        <mxCell id="XVNHufyyQOhivySqoOcP-87" value="Send Message&lt;br&gt;&quot;Hey... I feel like I&#39;m drawing blanks here but would you be opposed to a quick chat regarding growing your business?" style="ellipse;whiteSpace=wrap;html=1;" vertex="1" parent="1">
          <mxGeometry x="2585" y="470" width="230" height="140" as="geometry" />
        </mxCell>
        <mxCell id="XVNHufyyQOhivySqoOcP-94" style="edgeStyle=orthogonalEdgeStyle;rounded=0;orthogonalLoop=1;jettySize=auto;html=1;exitX=0;exitY=0.5;exitDx=0;exitDy=0;" edge="1" parent="1" source="XVNHufyyQOhivySqoOcP-90" target="XVNHufyyQOhivySqoOcP-92">
          <mxGeometry relative="1" as="geometry" />
        </mxCell>
        <mxCell id="XVNHufyyQOhivySqoOcP-95" style="edgeStyle=orthogonalEdgeStyle;rounded=0;orthogonalLoop=1;jettySize=auto;html=1;exitX=1;exitY=0.5;exitDx=0;exitDy=0;entryX=0.5;entryY=0;entryDx=0;entryDy=0;" edge="1" parent="1" source="XVNHufyyQOhivySqoOcP-90" target="XVNHufyyQOhivySqoOcP-93">
          <mxGeometry relative="1" as="geometry" />
        </mxCell>
        <mxCell id="XVNHufyyQOhivySqoOcP-90" value="Reply" style="rhombus;whiteSpace=wrap;html=1;" vertex="1" parent="1">
          <mxGeometry x="1480" y="580" width="80" height="80" as="geometry" />
        </mxCell>
        <mxCell id="XVNHufyyQOhivySqoOcP-101" value="" style="edgeStyle=orthogonalEdgeStyle;rounded=0;orthogonalLoop=1;jettySize=auto;html=1;" edge="1" parent="1" source="XVNHufyyQOhivySqoOcP-91" target="XVNHufyyQOhivySqoOcP-100">
          <mxGeometry relative="1" as="geometry" />
        </mxCell>
        <mxCell id="XVNHufyyQOhivySqoOcP-91" value="Didn&#39;t Reply" style="rhombus;whiteSpace=wrap;html=1;" vertex="1" parent="1">
          <mxGeometry x="1760" y="580" width="80" height="80" as="geometry" />
        </mxCell>
        <mxCell id="XVNHufyyQOhivySqoOcP-96" style="edgeStyle=orthogonalEdgeStyle;rounded=0;orthogonalLoop=1;jettySize=auto;html=1;exitX=0.5;exitY=1;exitDx=0;exitDy=0;entryX=0.5;entryY=0;entryDx=0;entryDy=0;" edge="1" parent="1" source="XVNHufyyQOhivySqoOcP-92">
          <mxGeometry relative="1" as="geometry">
            <mxPoint x="1400" y="810" as="targetPoint" />
          </mxGeometry>
        </mxCell>
        <mxCell id="XVNHufyyQOhivySqoOcP-92" value="Yes" style="rhombus;whiteSpace=wrap;html=1;" vertex="1" parent="1">
          <mxGeometry x="1360" y="680" width="80" height="80" as="geometry" />
        </mxCell>
        <mxCell id="XVNHufyyQOhivySqoOcP-97" style="edgeStyle=orthogonalEdgeStyle;rounded=0;orthogonalLoop=1;jettySize=auto;html=1;exitX=0.5;exitY=1;exitDx=0;exitDy=0;entryX=0.5;entryY=0;entryDx=0;entryDy=0;" edge="1" parent="1" source="XVNHufyyQOhivySqoOcP-93" target="XVNHufyyQOhivySqoOcP-76">
          <mxGeometry relative="1" as="geometry" />
        </mxCell>
        <mxCell id="XVNHufyyQOhivySqoOcP-93" value="No" style="rhombus;whiteSpace=wrap;html=1;" vertex="1" parent="1">
          <mxGeometry x="1560" y="680" width="80" height="80" as="geometry" />
        </mxCell>
        <mxCell id="XVNHufyyQOhivySqoOcP-100" value="Add to&lt;br&gt;reactivation2.csv" style="whiteSpace=wrap;html=1;" vertex="1" parent="1">
          <mxGeometry x="1740" y="690" width="120" height="60" as="geometry" />
        </mxCell>
        <mxCell id="XVNHufyyQOhivySqoOcP-107" value="" style="endArrow=none;dashed=1;html=1;rounded=0;" edge="1" parent="1">
          <mxGeometry width="50" height="50" relative="1" as="geometry">
            <mxPoint x="120" y="1240" as="sourcePoint" />
            <mxPoint x="120" y="1720" as="targetPoint" />
            <Array as="points" />
          </mxGeometry>
        </mxCell>
        <mxCell id="XVNHufyyQOhivySqoOcP-108" value="" style="endArrow=none;dashed=1;html=1;rounded=0;" edge="1" parent="1">
          <mxGeometry width="50" height="50" relative="1" as="geometry">
            <mxPoint x="1120" y="1240" as="sourcePoint" />
            <mxPoint x="1120" y="1720" as="targetPoint" />
            <Array as="points" />
          </mxGeometry>
        </mxCell>
        <mxCell id="XVNHufyyQOhivySqoOcP-109" value="" style="endArrow=none;dashed=1;html=1;rounded=0;" edge="1" parent="1">
          <mxGeometry width="50" height="50" relative="1" as="geometry">
            <mxPoint x="120" y="1240" as="sourcePoint" />
            <mxPoint x="1120" y="1240" as="targetPoint" />
            <Array as="points" />
          </mxGeometry>
        </mxCell>
        <mxCell id="XVNHufyyQOhivySqoOcP-110" value="" style="endArrow=none;dashed=1;html=1;rounded=0;" edge="1" parent="1">
          <mxGeometry width="50" height="50" relative="1" as="geometry">
            <mxPoint x="120" y="1720" as="sourcePoint" />
            <mxPoint x="1120" y="1720" as="targetPoint" />
            <Array as="points" />
          </mxGeometry>
        </mxCell>
        <mxCell id="XVNHufyyQOhivySqoOcP-111" value="&lt;font style=&quot;font-size: 25px;&quot;&gt;Scheduler&lt;/font&gt;" style="text;html=1;align=center;verticalAlign=middle;whiteSpace=wrap;rounded=0;" vertex="1" parent="1">
          <mxGeometry x="1030" y="1260" width="60" height="30" as="geometry" />
        </mxCell>
        <mxCell id="XVNHufyyQOhivySqoOcP-118" style="edgeStyle=orthogonalEdgeStyle;rounded=0;orthogonalLoop=1;jettySize=auto;html=1;exitX=0;exitY=0.5;exitDx=0;exitDy=0;entryX=0.5;entryY=0;entryDx=0;entryDy=0;" edge="1" parent="1" source="XVNHufyyQOhivySqoOcP-112" target="XVNHufyyQOhivySqoOcP-116">
          <mxGeometry relative="1" as="geometry" />
        </mxCell>
        <mxCell id="XVNHufyyQOhivySqoOcP-119" style="edgeStyle=orthogonalEdgeStyle;rounded=0;orthogonalLoop=1;jettySize=auto;html=1;exitX=1;exitY=0.5;exitDx=0;exitDy=0;entryX=0.5;entryY=0;entryDx=0;entryDy=0;" edge="1" parent="1" source="XVNHufyyQOhivySqoOcP-112" target="XVNHufyyQOhivySqoOcP-117">
          <mxGeometry relative="1" as="geometry" />
        </mxCell>
        <mxCell id="XVNHufyyQOhivySqoOcP-112" value="Reply" style="rhombus;whiteSpace=wrap;html=1;" vertex="1" parent="1">
          <mxGeometry x="2505" y="640" width="80" height="80" as="geometry" />
        </mxCell>
        <mxCell id="XVNHufyyQOhivySqoOcP-122" value="" style="edgeStyle=orthogonalEdgeStyle;rounded=0;orthogonalLoop=1;jettySize=auto;html=1;" edge="1" parent="1" source="XVNHufyyQOhivySqoOcP-113" target="XVNHufyyQOhivySqoOcP-121">
          <mxGeometry relative="1" as="geometry" />
        </mxCell>
        <mxCell id="XVNHufyyQOhivySqoOcP-113" value="Didn&#39;t reply" style="rhombus;whiteSpace=wrap;html=1;" vertex="1" parent="1">
          <mxGeometry x="2815" y="640" width="80" height="80" as="geometry" />
        </mxCell>
        <mxCell id="XVNHufyyQOhivySqoOcP-171" style="edgeStyle=orthogonalEdgeStyle;rounded=0;orthogonalLoop=1;jettySize=auto;html=1;exitX=0.5;exitY=1;exitDx=0;exitDy=0;entryX=0.5;entryY=0;entryDx=0;entryDy=0;" edge="1" parent="1" source="XVNHufyyQOhivySqoOcP-116" target="XVNHufyyQOhivySqoOcP-169">
          <mxGeometry relative="1" as="geometry" />
        </mxCell>
        <mxCell id="XVNHufyyQOhivySqoOcP-116" value="Yes" style="rhombus;whiteSpace=wrap;html=1;" vertex="1" parent="1">
          <mxGeometry x="2400" y="760" width="80" height="80" as="geometry" />
        </mxCell>
        <mxCell id="XVNHufyyQOhivySqoOcP-124" style="edgeStyle=orthogonalEdgeStyle;rounded=0;orthogonalLoop=1;jettySize=auto;html=1;exitX=0.5;exitY=1;exitDx=0;exitDy=0;entryX=0.5;entryY=0;entryDx=0;entryDy=0;" edge="1" parent="1" source="XVNHufyyQOhivySqoOcP-117" target="XVNHufyyQOhivySqoOcP-123">
          <mxGeometry relative="1" as="geometry" />
        </mxCell>
        <mxCell id="XVNHufyyQOhivySqoOcP-117" value="No" style="rhombus;whiteSpace=wrap;html=1;" vertex="1" parent="1">
          <mxGeometry x="2600" y="760" width="80" height="80" as="geometry" />
        </mxCell>
        <mxCell id="XVNHufyyQOhivySqoOcP-121" value="Add lead to&lt;br&gt;removed.csv" style="whiteSpace=wrap;html=1;" vertex="1" parent="1">
          <mxGeometry x="2795" y="810" width="120" height="60" as="geometry" />
        </mxCell>
        <mxCell id="XVNHufyyQOhivySqoOcP-123" value="Add lead to&amp;nbsp;&lt;br&gt;removed.csv" style="rounded=0;whiteSpace=wrap;html=1;" vertex="1" parent="1">
          <mxGeometry x="2580" y="910" width="120" height="60" as="geometry" />
        </mxCell>
        <mxCell id="XVNHufyyQOhivySqoOcP-129" value="Wait 48 hours" style="text;html=1;align=center;verticalAlign=middle;whiteSpace=wrap;rounded=0;" vertex="1" parent="1">
          <mxGeometry x="1520" y="525" width="60" height="30" as="geometry" />
        </mxCell>
        <mxCell id="XVNHufyyQOhivySqoOcP-130" value="Wait 48 hours" style="text;html=1;align=center;verticalAlign=middle;whiteSpace=wrap;rounded=0;" vertex="1" parent="1">
          <mxGeometry x="1800" y="525" width="60" height="30" as="geometry" />
        </mxCell>
        <mxCell id="XVNHufyyQOhivySqoOcP-131" value="Wait 48 hours" style="text;html=1;align=center;verticalAlign=middle;whiteSpace=wrap;rounded=0;" vertex="1" parent="1">
          <mxGeometry x="2380" y="710" width="60" height="30" as="geometry" />
        </mxCell>
        <mxCell id="XVNHufyyQOhivySqoOcP-132" value="Wait 48 hours" style="text;html=1;align=center;verticalAlign=middle;whiteSpace=wrap;rounded=0;" vertex="1" parent="1">
          <mxGeometry x="2580" y="720" width="60" height="30" as="geometry" />
        </mxCell>
        <mxCell id="XVNHufyyQOhivySqoOcP-133" value="Wait 48 hours" style="text;html=1;align=center;verticalAlign=middle;whiteSpace=wrap;rounded=0;" vertex="1" parent="1">
          <mxGeometry x="2855" y="605" width="60" height="30" as="geometry" />
        </mxCell>
        <mxCell id="XVNHufyyQOhivySqoOcP-134" value="&lt;h1 style=&quot;margin-top: 0px;&quot;&gt;&lt;font style=&quot;font-size: 35px;&quot;&gt;Things the system needs to keep track of&lt;/font&gt;&lt;/h1&gt;&lt;p&gt;&lt;span style=&quot;font-size: 25px;&quot;&gt;* Name of the lead&lt;/span&gt;&lt;/p&gt;&lt;p&gt;&lt;span style=&quot;font-size: 25px;&quot;&gt;* Contact number of the lead&lt;/span&gt;&lt;/p&gt;&lt;p&gt;&lt;span style=&quot;font-size: 25px;&quot;&gt;* Last contacted date&lt;/span&gt;&lt;/p&gt;&lt;p&gt;&lt;span style=&quot;font-size: 25px;&quot;&gt;* Which list the lead is in&amp;nbsp;&lt;/span&gt;&lt;/p&gt;" style="text;html=1;whiteSpace=wrap;overflow=hidden;rounded=0;" vertex="1" parent="1">
          <mxGeometry x="1200" y="1240" width="690" height="470" as="geometry" />
        </mxCell>
        <mxCell id="XVNHufyyQOhivySqoOcP-37" value="" style="endArrow=none;dashed=1;html=1;rounded=0;" edge="1" parent="1">
          <mxGeometry width="50" height="50" relative="1" as="geometry">
            <mxPoint x="120" y="1198.55" as="sourcePoint" />
            <mxPoint x="120" y="158.55" as="targetPoint" />
          </mxGeometry>
        </mxCell>
        <mxCell id="XVNHufyyQOhivySqoOcP-38" value="" style="endArrow=none;dashed=1;html=1;rounded=0;" edge="1" parent="1">
          <mxGeometry width="50" height="50" relative="1" as="geometry">
            <mxPoint x="1120" y="1198.55" as="sourcePoint" />
            <mxPoint x="1120" y="158.55" as="targetPoint" />
          </mxGeometry>
        </mxCell>
        <mxCell id="XVNHufyyQOhivySqoOcP-39" value="" style="endArrow=none;dashed=1;html=1;rounded=0;" edge="1" parent="1">
          <mxGeometry width="50" height="50" relative="1" as="geometry">
            <mxPoint x="120" y="158.55" as="sourcePoint" />
            <mxPoint x="1120" y="158.55" as="targetPoint" />
          </mxGeometry>
        </mxCell>
        <mxCell id="XVNHufyyQOhivySqoOcP-40" value="" style="endArrow=none;dashed=1;html=1;rounded=0;" edge="1" parent="1">
          <mxGeometry width="50" height="50" relative="1" as="geometry">
            <mxPoint x="120" y="1200.55" as="sourcePoint" />
            <mxPoint x="1120" y="1201.0115009014423" as="targetPoint" />
          </mxGeometry>
        </mxCell>
        <mxCell id="XVNHufyyQOhivySqoOcP-125" value="Wait 48 hours" style="text;html=1;align=center;verticalAlign=middle;whiteSpace=wrap;rounded=0;" vertex="1" parent="1">
          <mxGeometry x="780" y="438.55" width="60" height="30" as="geometry" />
        </mxCell>
        <mxCell id="XVNHufyyQOhivySqoOcP-127" value="Wait 48 hours" style="text;html=1;align=center;verticalAlign=middle;whiteSpace=wrap;rounded=0;" vertex="1" parent="1">
          <mxGeometry x="380" y="438.55" width="60" height="30" as="geometry" />
        </mxCell>
        <mxCell id="XVNHufyyQOhivySqoOcP-128" value="Wait 48 hours" style="text;html=1;align=center;verticalAlign=middle;whiteSpace=wrap;rounded=0;" vertex="1" parent="1">
          <mxGeometry x="630" y="448.55" width="60" height="30" as="geometry" />
        </mxCell>
        <mxCell id="XVNHufyyQOhivySqoOcP-62" value="Add to&lt;br&gt;reactivation1.csv" style="whiteSpace=wrap;html=1;" vertex="1" parent="1">
          <mxGeometry x="370" y="838.55" width="120" height="60" as="geometry" />
        </mxCell>
        <mxCell id="XVNHufyyQOhivySqoOcP-151" style="edgeStyle=orthogonalEdgeStyle;rounded=0;orthogonalLoop=1;jettySize=auto;html=1;exitX=0.5;exitY=1;exitDx=0;exitDy=0;entryX=0.5;entryY=0;entryDx=0;entryDy=0;" edge="1" parent="1" source="XVNHufyyQOhivySqoOcP-137" target="XVNHufyyQOhivySqoOcP-150">
          <mxGeometry relative="1" as="geometry" />
        </mxCell>
        <mxCell id="XVNHufyyQOhivySqoOcP-137" value="Yes" style="rhombus;whiteSpace=wrap;html=1;" vertex="1" parent="1">
          <mxGeometry x="150" y="828.55" width="80" height="80" as="geometry" />
        </mxCell>
        <mxCell id="XVNHufyyQOhivySqoOcP-145" value="" style="edgeStyle=orthogonalEdgeStyle;rounded=0;orthogonalLoop=1;jettySize=auto;html=1;" edge="1" parent="1" source="XVNHufyyQOhivySqoOcP-138" target="XVNHufyyQOhivySqoOcP-144">
          <mxGeometry relative="1" as="geometry" />
        </mxCell>
        <mxCell id="XVNHufyyQOhivySqoOcP-138" value="No" style="rhombus;whiteSpace=wrap;html=1;" vertex="1" parent="1">
          <mxGeometry x="280" y="828.55" width="80" height="80" as="geometry" />
        </mxCell>
        <mxCell id="XVNHufyyQOhivySqoOcP-156" value="" style="edgeStyle=orthogonalEdgeStyle;rounded=0;orthogonalLoop=1;jettySize=auto;html=1;" edge="1" parent="1" source="XVNHufyyQOhivySqoOcP-22" target="XVNHufyyQOhivySqoOcP-155">
          <mxGeometry relative="1" as="geometry" />
        </mxCell>
        <mxCell id="XVNHufyyQOhivySqoOcP-22" value="Add number to tocall.csv" style="rounded=0;whiteSpace=wrap;html=1;" vertex="1" parent="1">
          <mxGeometry x="130" y="1130" width="120" height="60" as="geometry" />
        </mxCell>
        <mxCell id="XVNHufyyQOhivySqoOcP-144" value="Add lead to&amp;nbsp;&lt;br&gt;removed.csv" style="whiteSpace=wrap;html=1;" vertex="1" parent="1">
          <mxGeometry x="340" y="950" width="120" height="60" as="geometry" />
        </mxCell>
        <mxCell id="XVNHufyyQOhivySqoOcP-146" value="Add lead to&amp;nbsp;&lt;br&gt;deleted.csv" style="whiteSpace=wrap;html=1;" vertex="1" parent="1">
          <mxGeometry x="575" y="570" width="120" height="60" as="geometry" />
        </mxCell>
        <mxCell id="XVNHufyyQOhivySqoOcP-148" value="&lt;font style=&quot;font-size: 15px;&quot;&gt;500 per day&lt;br&gt;3500 a week&lt;/font&gt;&lt;div style=&quot;font-size: 15px;&quot;&gt;&lt;font style=&quot;font-size: 15px;&quot;&gt;14k a month&lt;/font&gt;&lt;/div&gt;" style="text;html=1;align=center;verticalAlign=middle;whiteSpace=wrap;rounded=0;" vertex="1" parent="1">
          <mxGeometry x="420" y="200" width="120" height="60" as="geometry" />
        </mxCell>
        <mxCell id="XVNHufyyQOhivySqoOcP-153" style="edgeStyle=orthogonalEdgeStyle;rounded=0;orthogonalLoop=1;jettySize=auto;html=1;exitX=0.5;exitY=1;exitDx=0;exitDy=0;entryX=0.5;entryY=0;entryDx=0;entryDy=0;" edge="1" parent="1" source="XVNHufyyQOhivySqoOcP-150" target="XVNHufyyQOhivySqoOcP-152">
          <mxGeometry relative="1" as="geometry" />
        </mxCell>
        <mxCell id="XVNHufyyQOhivySqoOcP-150" value="Send Message&lt;br&gt;&quot;Would you mind if I give you a quick call in the next hour?&quot;" style="ellipse;whiteSpace=wrap;html=1;" vertex="1" parent="1">
          <mxGeometry x="130" y="930" width="120" height="80" as="geometry" />
        </mxCell>
        <mxCell id="XVNHufyyQOhivySqoOcP-154" style="edgeStyle=orthogonalEdgeStyle;rounded=0;orthogonalLoop=1;jettySize=auto;html=1;exitX=0.5;exitY=1;exitDx=0;exitDy=0;entryX=0.5;entryY=0;entryDx=0;entryDy=0;" edge="1" parent="1" source="XVNHufyyQOhivySqoOcP-152" target="XVNHufyyQOhivySqoOcP-22">
          <mxGeometry relative="1" as="geometry" />
        </mxCell>
        <mxCell id="XVNHufyyQOhivySqoOcP-152" value="Extract message data&lt;br&gt;and add to csv file" style="rounded=1;whiteSpace=wrap;html=1;" vertex="1" parent="1">
          <mxGeometry x="130" y="1050" width="120" height="60" as="geometry" />
        </mxCell>
        <mxCell id="XVNHufyyQOhivySqoOcP-175" value="" style="edgeStyle=orthogonalEdgeStyle;rounded=0;orthogonalLoop=1;jettySize=auto;html=1;" edge="1" parent="1" source="XVNHufyyQOhivySqoOcP-155" target="XVNHufyyQOhivySqoOcP-174">
          <mxGeometry relative="1" as="geometry" />
        </mxCell>
        <mxCell id="XVNHufyyQOhivySqoOcP-155" value="Send Message&lt;br&gt;&quot;Alrighty&quot;" style="ellipse;whiteSpace=wrap;html=1;rounded=0;" vertex="1" parent="1">
          <mxGeometry x="290" y="1120" width="110" height="80" as="geometry" />
        </mxCell>
        <mxCell id="XVNHufyyQOhivySqoOcP-157" value="Lead says YES" style="text;html=1;align=center;verticalAlign=middle;whiteSpace=wrap;rounded=0;" vertex="1" parent="1">
          <mxGeometry x="190" y="1020" width="60" height="30" as="geometry" />
        </mxCell>
        <mxCell id="XVNHufyyQOhivySqoOcP-165" style="edgeStyle=orthogonalEdgeStyle;rounded=0;orthogonalLoop=1;jettySize=auto;html=1;exitX=0.5;exitY=1;exitDx=0;exitDy=0;entryX=0.5;entryY=0;entryDx=0;entryDy=0;" edge="1" parent="1" source="XVNHufyyQOhivySqoOcP-159" target="XVNHufyyQOhivySqoOcP-164">
          <mxGeometry relative="1" as="geometry" />
        </mxCell>
        <mxCell id="XVNHufyyQOhivySqoOcP-159" value="Add number to tocall.csv" style="rounded=0;whiteSpace=wrap;html=1;" vertex="1" parent="1">
          <mxGeometry x="1340" y="890" width="120" height="60" as="geometry" />
        </mxCell>
        <mxCell id="XVNHufyyQOhivySqoOcP-160" style="edgeStyle=orthogonalEdgeStyle;rounded=0;orthogonalLoop=1;jettySize=auto;html=1;exitX=0.5;exitY=1;exitDx=0;exitDy=0;entryX=0.5;entryY=0;entryDx=0;entryDy=0;" edge="1" parent="1" source="XVNHufyyQOhivySqoOcP-161" target="XVNHufyyQOhivySqoOcP-159">
          <mxGeometry relative="1" as="geometry" />
        </mxCell>
        <mxCell id="XVNHufyyQOhivySqoOcP-161" value="Extract message data&lt;br&gt;and add to csv file" style="rounded=1;whiteSpace=wrap;html=1;" vertex="1" parent="1">
          <mxGeometry x="1340" y="810" width="120" height="60" as="geometry" />
        </mxCell>
        <mxCell id="XVNHufyyQOhivySqoOcP-177" value="" style="edgeStyle=orthogonalEdgeStyle;rounded=0;orthogonalLoop=1;jettySize=auto;html=1;" edge="1" parent="1" source="XVNHufyyQOhivySqoOcP-164" target="XVNHufyyQOhivySqoOcP-176">
          <mxGeometry relative="1" as="geometry" />
        </mxCell>
        <mxCell id="XVNHufyyQOhivySqoOcP-164" value="Send Message&lt;br&gt;&quot;Alrighty&quot;" style="ellipse;whiteSpace=wrap;html=1;" vertex="1" parent="1">
          <mxGeometry x="1340" y="980" width="120" height="80" as="geometry" />
        </mxCell>
        <mxCell id="XVNHufyyQOhivySqoOcP-166" style="edgeStyle=orthogonalEdgeStyle;rounded=0;orthogonalLoop=1;jettySize=auto;html=1;exitX=0.5;exitY=1;exitDx=0;exitDy=0;entryX=0.5;entryY=0;entryDx=0;entryDy=0;" edge="1" parent="1" source="XVNHufyyQOhivySqoOcP-167" target="XVNHufyyQOhivySqoOcP-170">
          <mxGeometry relative="1" as="geometry" />
        </mxCell>
        <mxCell id="XVNHufyyQOhivySqoOcP-167" value="Add number to tocall.csv" style="rounded=0;whiteSpace=wrap;html=1;" vertex="1" parent="1">
          <mxGeometry x="2380" y="960" width="120" height="60" as="geometry" />
        </mxCell>
        <mxCell id="XVNHufyyQOhivySqoOcP-168" style="edgeStyle=orthogonalEdgeStyle;rounded=0;orthogonalLoop=1;jettySize=auto;html=1;exitX=0.5;exitY=1;exitDx=0;exitDy=0;entryX=0.5;entryY=0;entryDx=0;entryDy=0;" edge="1" parent="1" source="XVNHufyyQOhivySqoOcP-169" target="XVNHufyyQOhivySqoOcP-167">
          <mxGeometry relative="1" as="geometry" />
        </mxCell>
        <mxCell id="XVNHufyyQOhivySqoOcP-169" value="Extract message data&lt;br&gt;and add to csv file" style="rounded=1;whiteSpace=wrap;html=1;" vertex="1" parent="1">
          <mxGeometry x="2380" y="880" width="120" height="60" as="geometry" />
        </mxCell>
        <mxCell id="XVNHufyyQOhivySqoOcP-179" value="" style="edgeStyle=orthogonalEdgeStyle;rounded=0;orthogonalLoop=1;jettySize=auto;html=1;" edge="1" parent="1" source="XVNHufyyQOhivySqoOcP-170" target="XVNHufyyQOhivySqoOcP-178">
          <mxGeometry relative="1" as="geometry" />
        </mxCell>
        <mxCell id="XVNHufyyQOhivySqoOcP-170" value="Send Message&lt;br&gt;&quot;Alrighty&quot;" style="ellipse;whiteSpace=wrap;html=1;" vertex="1" parent="1">
          <mxGeometry x="2380" y="1050" width="120" height="80" as="geometry" />
        </mxCell>
        <mxCell id="XVNHufyyQOhivySqoOcP-173" value="&lt;h1 style=&quot;margin-top: 0px;&quot;&gt;&lt;font style=&quot;font-size: 35px;&quot;&gt;Jobs the scheduler needs to do&lt;/font&gt;&lt;/h1&gt;&lt;p&gt;&lt;span style=&quot;font-size: 25px;&quot;&gt;Every 10 minutes:&lt;/span&gt;&lt;/p&gt;&lt;p&gt;&lt;span style=&quot;font-size: 25px; white-space: normal;&quot;&gt;&lt;span style=&quot;white-space:pre&quot;&gt;&#x9;&lt;/span&gt;Send messages leaving a small time buffer between two messages.&lt;/span&gt;&lt;/p&gt;&lt;p&gt;&lt;span style=&quot;font-size: 25px;&quot;&gt;&lt;br&gt;&lt;/span&gt;&lt;/p&gt;&lt;p&gt;&lt;span style=&quot;font-size: 25px;&quot;&gt;Every 30 minutes:&lt;/span&gt;&lt;/p&gt;&lt;p&gt;&lt;span style=&quot;font-size: 25px; white-space: normal;&quot;&gt;&lt;span style=&quot;white-space:pre&quot;&gt;&#x9;&lt;/span&gt;Send email to 2 email addresses with the updated tosend.csv&lt;/span&gt;&lt;/p&gt;&lt;p&gt;&lt;span style=&quot;font-size: 25px; white-space: normal;&quot;&gt;&lt;span style=&quot;white-space:pre&quot;&gt;&#x9;&lt;/span&gt;Clear the previous tosend.csv&lt;/span&gt;&lt;/p&gt;&lt;p&gt;&lt;span style=&quot;font-size: 25px;&quot;&gt;&lt;br&gt;&lt;/span&gt;&lt;/p&gt;&lt;p&gt;&lt;span style=&quot;font-size: 25px;&quot;&gt;Every day:&lt;/span&gt;&lt;/p&gt;&lt;p&gt;&lt;span style=&quot;font-size: 25px; white-space: normal;&quot;&gt;&lt;span style=&quot;white-space:pre&quot;&gt;&#x9;&lt;/span&gt;Determine the number of sms per hour&lt;/span&gt;&lt;/p&gt;&lt;p&gt;&lt;span style=&quot;font-size: 25px; white-space: normal;&quot;&gt;&lt;span style=&quot;white-space:pre&quot;&gt;&#x9;&#x9;&lt;/span&gt;Calculated by (activation + reactivation1 + reactivation2)/10&amp;nbsp;&lt;/span&gt;&lt;/p&gt;&lt;p&gt;&lt;span style=&quot;font-size: 25px; white-space: normal;&quot;&gt;&lt;span style=&quot;white-space:pre&quot;&gt;&#x9;&#x9;&lt;/span&gt;1900 IST to 0500 IST&lt;/span&gt;&lt;/p&gt;" style="text;html=1;whiteSpace=wrap;overflow=hidden;rounded=0;" vertex="1" parent="1">
          <mxGeometry x="1940" y="1240" width="990" height="600" as="geometry" />
        </mxCell>
        <mxCell id="XVNHufyyQOhivySqoOcP-174" value="Add number to&lt;br&gt;tosend.csv" style="whiteSpace=wrap;html=1;rounded=0;" vertex="1" parent="1">
          <mxGeometry x="440" y="1130" width="120" height="60" as="geometry" />
        </mxCell>
        <mxCell id="XVNHufyyQOhivySqoOcP-176" value="Add number to tosend.csv" style="whiteSpace=wrap;html=1;" vertex="1" parent="1">
          <mxGeometry x="1340" y="1080" width="120" height="60" as="geometry" />
        </mxCell>
        <mxCell id="XVNHufyyQOhivySqoOcP-178" value="Add number to&amp;nbsp;&lt;br&gt;tosend.csv" style="whiteSpace=wrap;html=1;" vertex="1" parent="1">
          <mxGeometry x="2580" y="1060" width="120" height="60" as="geometry" />
        </mxCell>
      </root>
    </mxGraphModel>
  </diagram>
</mxfile>
